# xmcd
#
# Track frame offsets:
#  150
#  14903
#  32550
#  50138
#  66710
#
# Disc length: 1116 seconds
#
# Revision: 0
# Processed by: cddbd v1.5.1PL2 Copyright (c) Steve Scherf et al.
# Submitted via: Collectorz.com_Music_Collector 6.10
#
DISCID=4c045a05
DTITLE=Kelly Cooper - Kelly Cooper
DYEAR=2006
DGENRE=Country
TTITLE0=Are Your With Me
TTITLE1=Let Love Deliver You
TTITLE2=Stumblin' In
TTITLE3=Don't Make Me Love you
TTITLE4=Thirsty
EXTD=
EXTT0=
EXTT1=
EXTT2=
EXTT3=
EXTT4=
PLAYORDER=
